<svg width="203" height="40" viewBox="0 0 203 40" fill="none" xmlns="http://www.w3.org/2000/svg">
<g clip-path="url(#clip0_5642_8184)">
<path opacity="0.6" fill-rule="evenodd" clip-rule="evenodd" d="M163.763 26.9881C163.763 28.8929 162.24 30.4167 160.525 30.4167C158.62 30.4167 157.287 28.8929 157.287 26.9881C157.287 25.0834 158.811 23.5596 160.525 23.5596C162.43 23.75 163.763 25.2739 163.763 26.9881Z" fill="#7A788F"/>
<path d="M199 27.369V0.321336H190.62V3.36895H193.096V27.369H190.62V30.4166H201.477V27.369H199ZM178.81 27.369C176.334 27.369 173.667 24.8928 173.477 19.7499V19.5594C173.477 14.4166 176.334 11.9404 178.81 11.9404C181.858 11.9404 183.762 13.6547 183.762 19.5594C183.953 25.4642 181.858 27.369 178.81 27.369ZM180.334 8.51181C177.286 8.51181 175 10.2261 173.477 13.0832L172.905 9.08324H165.286V12.1309H167.762V36.1309H165.286V39.1785H176.143V36.1309H173.667V26.6071C175 29.2737 177.286 30.7975 180.334 30.7975C186.62 30.7975 189.858 25.8451 189.858 19.5594C189.858 13.4642 186.62 8.51181 180.334 8.51181ZM113.477 12.1309V9.08324H105.096V12.1309H107.572V27.369H105.096V30.4166H115.953V27.369H113.477V12.1309ZM74.2386 18.0356C74.2386 11.7499 72.1434 8.51181 67.0005 8.51181C63.7624 8.51181 60.9053 10.0356 59.3815 13.0832L58.8101 9.08324H51.191V12.1309H53.6672V27.369H51.191V30.4166H62.0482V27.369H59.572V19.5594C59.572 14.988 62.4291 12.3213 64.5243 12.3213C67.3815 12.3213 68.3339 13.2737 68.3339 17.8451V27.1785H65.8577V30.2261H76.7148V27.1785H74.2386V18.0356ZM110.62 6.988C112.524 6.988 113.858 5.46419 113.858 3.55943C113.858 1.65467 112.334 0.130859 110.62 0.130859C108.715 0.130859 107.381 1.65467 107.381 3.55943C107.191 5.46419 108.715 6.988 110.62 6.988ZM19.191 20.8928C19.191 25.6547 16.9053 27.369 14.2387 27.369H9.0958V15.369H14.2387C16.9053 15.369 19.191 16.1309 19.191 20.8928ZM8.90532 3.36895H12.3339C15.191 3.36895 17.2863 3.74991 17.2863 7.55943H17.0958C17.0958 11.1785 15.0006 12.7023 12.1434 12.7023H8.71485L8.90532 3.36895ZM23.3815 7.55943C23.3815 1.27372 18.4291 0.321336 12.5244 0.321336H0.714844V3.36895H3.19104V27.369H0.714844V30.4166H14.2387C20.1434 30.4166 25.0958 28.1309 25.0958 20.8928C25.0958 15.7499 22.2387 14.0356 18.2387 13.4642C21.2863 12.7023 23.3815 10.988 23.3815 7.55943ZM90.8101 12.1309H94.2386L86.4291 20.1309V0.321336H78.0482V3.36895H80.5244V27.369H78.0482V30.4166H88.9053V27.369H86.4291V24.5118L90.2386 20.7023L94.0481 27.369H91.7624V30.4166H102.62V27.369H100.334L94.0481 16.5118L98.4291 12.1309H102.429V9.08324H90.6196L90.8101 12.1309ZM153.858 8.51181C151.572 8.51181 148.334 10.2261 147.572 12.8928L147.001 9.08324H139.381V12.1309H141.858V27.369H139.381V30.4166H150.239V27.369H147.762V19.5594C147.762 14.0356 150.048 12.3213 152.143 12.3213C152.334 12.3213 152.524 12.3213 152.715 12.5118C152.524 12.8928 152.334 13.4642 152.334 13.8451C152.334 15.5594 153.667 16.8928 155.381 16.8928C157.096 16.8928 158.429 15.5594 158.429 12.8928C158.62 9.84515 156.524 8.51181 153.858 8.51181ZM41.0958 19.7499C41.0958 24.3213 38.2386 26.988 35.572 26.988C33.4767 26.988 32.3339 25.8451 32.3339 24.1309C32.3339 20.3213 38.8101 19.5594 41.0958 19.369C41.0958 19.1785 41.0958 19.7499 41.0958 19.7499ZM47.0005 15.7499C47.0005 10.4166 44.5243 8.51181 36.9053 8.51181C31.572 8.51181 27.191 10.7975 27.191 13.2737V14.0356C27.191 15.7499 28.5244 17.0832 30.2386 17.0832C31.9529 17.0832 33.2863 15.7499 33.2863 14.0356C33.2863 13.4642 33.0958 12.8928 32.9053 12.5118C33.4767 11.9404 35.572 11.5594 36.9053 11.5594C39.572 11.5594 41.0958 12.8928 41.0958 15.7499V16.7023C40.1434 16.7023 38.4291 17.0832 34.8101 17.6547C29.4767 18.607 26.4291 21.4642 26.4291 24.8928C26.4291 28.7023 29.0958 30.7975 33.6672 30.7975C36.7148 30.7975 39.572 29.0832 41.4767 26.4166L42.2386 30.2261H49.4767V27.1785H47.0005V15.7499ZM122.81 18.0356C123.001 14.2261 124.524 11.5594 127.762 11.5594C131 11.5594 132.334 14.4166 132.715 18.0356H122.81ZM127.572 8.51181C119.953 8.51181 116.715 13.4642 116.715 19.7499C116.715 26.0356 120.143 30.988 127.572 30.988C132.143 30.988 135.953 29.0832 137.667 24.7023L133.286 23.5594C132.143 26.0356 130.62 27.5594 127.572 27.5594C124.334 27.5594 123.001 25.2737 122.62 21.4642H138.429V20.8928C138.62 13.4642 135.191 8.51181 127.572 8.51181Z" fill="#7A788F"/>
</g>
<defs>
<clipPath id="clip0_5642_8184">
<rect width="201.905" height="40" fill="white" transform="translate(0.333984)"/>
</clipPath>
</defs>
</svg>
