<svg width="154" height="40" viewBox="0 0 154 40" fill="none" xmlns="http://www.w3.org/2000/svg">
<g clip-path="url(#clip0_5642_8188)">
<path d="M15.4627 3.47707H18.8083C20.8458 3.17692 22.9265 3.44082 24.8245 4.2401C27.2057 5.67269 28.9328 7.97902 29.6375 10.6671C30.1364 12.0758 30.1364 12.0758 31.3396 11.5769H32.2787V0.424982H0.789093V2.39123H2.08037C2.64151 2.38735 3.19639 2.50922 3.70424 2.74791C4.21209 2.9866 4.66002 3.33604 5.0151 3.77054C6.21834 5.70745 6.42377 7.87913 6.42377 19.1777C6.42377 31.1807 6.15965 34.1154 5.0151 35.6121C4.73255 35.9968 4.36672 36.3128 3.94494 36.5364C3.52316 36.76 3.05632 36.8854 2.57928 36.9033C0.789093 37.2262 0.789093 37.1968 0.789093 37.9892C0.690094 38.2541 0.690094 38.5459 0.789093 38.8109H20.6572C20.7887 38.5517 20.8572 38.2651 20.8572 37.9745C20.8572 37.6839 20.7887 37.3973 20.6572 37.1381C20.176 37.0042 19.6855 36.9061 19.1899 36.8446C18.6536 36.7809 18.1236 36.6729 17.6051 36.5218C16.8627 35.9798 16.2745 35.2534 15.8988 34.4145C15.5231 33.5755 15.3728 32.6531 15.4627 31.7383C15.1693 29.8014 15.0225 26.2504 15.0225 23.3157V20.9972H16.1964C17.659 20.9525 19.1206 21.1105 20.5398 21.4668C21.2197 21.8869 21.7985 22.452 22.2347 23.1216C22.671 23.7913 22.9541 24.5489 23.0637 25.3406L23.3278 26.2504H25.118V13.2496H23.4746L23.2104 14.5116C23.0993 15.3211 22.7998 16.0934 22.336 16.7662C21.8722 17.439 21.257 17.9935 20.5398 18.3854C19.8453 18.592 19.1137 18.6422 18.3975 18.5321H15.0225V15.3626C15.0225 12.0758 15.1986 5.14985 15.316 4.06401L15.4627 3.47707ZM152.808 26.7493C151.421 24.5166 149.257 22.8756 146.733 22.1418C144.798 21.5369 143.01 20.5377 141.48 19.2071C141.136 18.8742 140.878 18.4621 140.73 18.0069C140.582 17.5516 140.547 17.0669 140.629 16.5952C140.631 15.6698 141.001 14.7832 141.656 14.13C142.1 13.6648 142.663 13.3289 143.283 13.1583C143.903 12.9878 144.558 12.9889 145.178 13.1616C146.461 13.5272 147.621 14.2331 148.535 15.2044C149.45 16.1757 150.085 17.3762 150.372 18.6788C150.842 19.9995 150.901 19.9995 151.752 19.6473L152.28 19.4419V12.1344L151.898 11.9584C149.009 10.9436 145.944 10.5243 142.889 10.7258C140.257 10.7925 137.746 11.839 135.845 13.6605C134.984 14.4672 134.309 15.4526 133.868 16.5475C133.426 17.6425 133.23 18.8206 133.292 19.9995C133.309 21.8017 134.024 23.5272 135.288 24.8124C136.684 26.1858 138.398 27.1938 140.277 27.7471C144.826 29.5372 146.146 30.6818 146.146 32.7654C146.166 33.6441 145.886 34.5033 145.353 35.2019C144.819 35.9005 144.064 36.397 143.212 36.6099C142.187 36.835 141.125 36.835 140.101 36.6099C138.759 36.0891 137.561 35.2556 136.607 34.1786C135.652 33.1015 134.969 31.8121 134.613 30.4176L134.231 29.4785H133.703C133.451 29.4973 133.203 29.5568 132.969 29.6546H132.676V37.9892H133.175C135.157 38.6487 137.203 39.1011 139.279 39.3391H142.214C143.486 39.4325 144.766 39.3135 146 38.987C147.566 38.698 149.029 38.0042 150.244 36.9745C151.459 35.9448 152.384 34.6151 152.926 33.1176C153.276 32.2811 153.455 31.3831 153.454 30.4763C153.569 29.1988 153.347 27.9134 152.808 26.7493ZM125.163 11.5769C123.404 10.8385 121.51 10.4803 119.603 10.5259C117.696 10.5714 115.82 11.0196 114.099 11.841C112.481 12.6324 111.047 13.7543 109.889 15.1343C108.732 16.5143 107.876 18.1217 107.378 19.8527C106.744 21.741 106.475 23.7331 106.586 25.7221C106.565 26.8043 106.654 27.8859 106.85 28.9503C107.324 31.5675 108.588 33.9769 110.471 35.855C112.354 37.7331 114.767 38.9899 117.386 39.4565C119.091 39.6714 120.817 39.6714 122.522 39.4565C124.291 39.1447 125.985 38.4972 127.511 37.549C128.773 36.8413 129.842 35.8333 130.622 34.6143C130.572 34.423 130.483 34.2438 130.362 34.0875C130.241 33.9311 130.09 33.8009 129.917 33.7045C129.582 33.8258 129.266 33.9938 128.978 34.2034C127.518 35.1654 125.795 35.6476 124.048 35.5827C122.888 35.6611 121.726 35.4806 120.645 35.0542C119.563 34.6278 118.591 33.9663 117.797 33.1176C117.183 32.5471 116.676 31.8713 116.3 31.122C115.388 29.2976 114.897 27.2919 114.862 25.2526V24.108H131.12V23.5211C131.156 22.9347 131.156 22.3467 131.12 21.7603C131.115 19.6881 130.56 17.6544 129.514 15.8658C128.468 14.0772 126.966 12.5974 125.163 11.5769ZM116.975 21.7309H114.921V19.9995C115.596 15.568 117.269 12.9268 119.323 12.9268C121.377 12.9268 122.258 15.5387 122.639 20.3223V21.6722H120.878L116.975 21.7309ZM74.7736 10.6084C73.7596 10.5691 72.7515 10.7808 71.8389 11.2247C69.8554 12.1879 68.2533 13.79 67.2901 15.7735L66.9086 16.4778V10.6084H66.7618C66.4097 10.6084 55.5512 12.7801 55.199 12.9268C54.8468 13.0736 54.9642 13.1029 54.9642 13.6311C54.9642 14.1594 54.9642 14.2474 55.199 14.2768L56.3435 14.5116C56.6641 14.5194 56.9787 14.6001 57.2634 14.7476C57.5481 14.895 57.7956 15.1054 57.987 15.3626C58.7207 16.3311 58.8674 18.0332 58.8674 25.2819C59.0124 28.5452 58.8749 31.8149 58.4565 35.0545C58.3581 35.543 58.1104 35.9888 57.7476 36.3305C57.3849 36.6722 56.9251 36.8929 56.4316 36.962L55.4338 37.1675H55.0523V37.9892C54.9458 38.2629 54.9458 38.5665 55.0523 38.8402H71.4574V37.9892C71.5143 37.7083 71.5143 37.4189 71.4574 37.1381C70.4697 37.0996 69.4874 36.9719 68.5227 36.7566C67.9973 36.4818 67.5675 36.0543 67.2898 35.5305C67.0122 35.0066 66.8997 34.4109 66.9673 33.8219C66.7325 32.1198 66.6151 27.1308 66.6738 23.3157C66.7325 19.5005 66.6738 19.2658 66.9966 19.0017C67.9786 18.2487 69.1938 17.8644 70.4302 17.9158C71.5957 17.9412 72.7399 18.2323 73.7758 18.7669C74.1349 18.9663 74.5202 19.1145 74.9204 19.2071C74.9204 19.2071 77.8551 12.1051 77.8551 11.7823C77.4796 11.3459 77.0011 11.01 76.4631 10.805C75.925 10.6001 75.3444 10.5325 74.7736 10.6084ZM54.9936 22.9342C54.8911 20.837 54.289 18.7947 53.2374 16.9774C52.1859 15.1601 50.7152 13.6204 48.948 12.4866C46.8479 11.3537 44.5114 10.729 42.1261 10.6627C39.7408 10.5965 37.3732 11.0905 35.2135 12.1051C32.1599 13.7153 29.8543 16.4525 28.7864 19.7353C27.6834 23.4108 27.6834 27.3291 28.7864 31.0046C29.3646 33.0133 30.4454 34.8415 31.9266 36.3164C33.7713 38.1164 36.15 39.2697 38.7058 39.6033C40.3464 39.7405 41.9956 39.7405 43.6362 39.6033C44.2399 39.5114 44.8376 39.384 45.4263 39.2218C47.8151 38.5535 49.9642 37.2189 51.6221 35.3739C53.28 33.5289 54.3782 31.2499 54.7881 28.8036C55.0811 26.8614 55.15 24.892 54.9936 22.9342ZM42.7851 37.6077C39.8504 38.4881 37.6493 35.6414 36.9156 29.6546C36.6462 26.5203 36.6462 23.3686 36.9156 20.2342C37.5026 15.4213 38.9993 12.9855 41.3177 12.9855C41.7855 12.9565 42.2534 13.04 42.6822 13.2289C43.1111 13.4178 43.4885 13.7067 43.7829 14.0714C45.7492 16.0376 46.7176 19.9408 46.7176 25.8102C46.9618 29.1319 46.4397 32.4654 45.1916 35.5534C44.6404 36.454 43.7877 37.1299 42.7851 37.4609V37.6077ZM95.6102 11.1953C94.7821 11.0888 93.9438 11.0888 93.1157 11.1953C91.5261 11.194 89.9548 11.5343 88.5082 12.1931L87.5984 12.5747V6.20635C87.7574 4.05717 87.7574 1.89918 87.5984 -0.25C87.2462 -0.25 76.0356 1.89233 75.8595 1.98037C75.7729 2.19704 75.7729 2.43869 75.8595 2.65536C75.8595 3.27164 75.8595 3.2423 77.1801 3.53577C77.5509 3.61892 77.9071 3.75743 78.2366 3.94662C78.8095 4.48532 79.1908 5.19633 79.3225 5.97157C79.6566 8.20495 79.7648 10.4663 79.6453 12.7214V38.4881L80.4377 38.6642C81.6116 38.9283 84.9278 39.4859 86.0137 39.6033C88.1819 39.7757 90.3605 39.7757 92.5288 39.6033C94.9354 39.3574 97.2294 38.4596 99.1636 37.0064C101.098 35.5532 102.599 33.5999 103.505 31.3567C104.045 29.9171 104.419 28.4205 104.62 26.896C104.795 24.831 104.726 22.7526 104.414 20.7038C104.1 18.4071 103.086 16.2629 101.511 14.562C99.936 12.861 97.8759 11.6857 95.6102 11.1953ZM87.9212 37.1088C87.9212 36.7273 87.6278 23.8733 87.6865 18.7375V14.717L88.5375 14.5116C89.1118 14.4293 89.6948 14.4293 90.269 14.5116C90.9041 14.447 91.5429 14.5912 92.0886 14.9224C93.1845 15.6788 94.0946 16.6739 94.7504 17.8329C95.4061 18.9919 95.7904 20.2845 95.8744 21.6135C96.0882 23.7505 96.0882 25.9035 95.8744 28.0405C95.6987 31.1465 94.5019 34.1074 92.4701 36.4631C91.8934 37.0109 91.1691 37.3781 90.3864 37.5196C89.7941 37.6226 89.1885 37.6226 88.5962 37.5196C88.0386 37.5196 88.0386 37.3435 88.0386 37.1088H87.9212Z" fill="#7A788F"/>
</g>
<defs>
<clipPath id="clip0_5642_8188">
<rect width="152.723" height="40" fill="white" transform="translate(0.759766)"/>
</clipPath>
</defs>
</svg>
