<svg width="163" height="48" viewBox="0 0 163 48" fill="none" xmlns="http://www.w3.org/2000/svg">
<g clip-path="url(#clip0_5642_8190)">
<path fill-rule="evenodd" clip-rule="evenodd" d="M35.7313 23.9746L25.6221 10.4956H35.1322L45.2414 23.9746H35.7313Z" fill="#7A788F"/>
<path fill-rule="evenodd" clip-rule="evenodd" d="M32.9591 47.413H42.619L25.2462 23.9746H15.6611L32.9591 47.413Z" fill="#7A788F"/>
<path fill-rule="evenodd" clip-rule="evenodd" d="M18.1329 47.413H27.718L10.42 23.9746H0.834961L18.1329 47.413Z" fill="#7A788F"/>
<path opacity="0.6" fill-rule="evenodd" clip-rule="evenodd" d="M0.834961 23.9744H10.42L28.0175 0.161621H18.4325L0.834961 23.9744Z" fill="#7A788F"/>
<path opacity="0.6" fill-rule="evenodd" clip-rule="evenodd" d="M25.2462 23.9746L35.1307 10.4956H25.6206L15.6611 23.9746H25.2462Z" fill="#7A788F"/>
<path opacity="0.6" fill-rule="evenodd" clip-rule="evenodd" d="M18.5068 47.413H28.0919L45.2401 23.9746H35.7299L18.5068 47.413Z" fill="#7A788F"/>
<path opacity="0.6" fill-rule="evenodd" clip-rule="evenodd" d="M42.9949 47.413L55.5752 30.6392L50.5581 23.9746L33.335 47.413H42.9949Z" fill="#7A788F"/>
<path fill-rule="evenodd" clip-rule="evenodd" d="M99.8297 16.5608H104.697C107.917 16.5608 109.789 18.1334 109.789 21.3533C109.789 24.5733 107.917 26.2956 104.697 26.2956H99.8297V16.5608ZM99.8297 32.3611H105.072C112.485 32.3611 116.753 28.2426 116.753 21.0538C116.753 14.2394 112.485 10.4204 105.072 10.4204H92.4912V40.8978H99.8297V32.3611Z" fill="#7A788F"/>
<path fill-rule="evenodd" clip-rule="evenodd" d="M149.029 32.8856L143.413 10.4956H136.224L130.683 32.8856L124.992 10.4956H117.204L126.639 40.973H134.203L139.669 19.856L145.061 40.973H152.624L162.134 10.4956H154.646L149.029 32.8856Z" fill="#7A788F"/>
<path fill-rule="evenodd" clip-rule="evenodd" d="M75.4178 41.2724C79.4615 41.2724 84.3289 39.625 87.3991 37.3036V31.0135V25.3972H81.034H76.9903V31.0135H81.034V33.2599C79.3117 34.1585 77.3647 34.7576 75.942 34.7576C71.1494 34.7576 67.4802 30.8637 67.4802 25.6219C67.4802 20.5298 71.1494 16.6359 75.8671 16.6359C78.5629 16.6359 81.4833 17.9089 83.58 19.9308L87.6986 14.689C84.7033 11.9183 80.2103 10.1211 75.8671 10.1211C66.7313 10.1211 59.917 16.7857 59.917 25.6219C59.917 34.6078 66.5816 41.2724 75.4178 41.2724Z" fill="#7A788F"/>
</g>
<defs>
<clipPath id="clip0_5642_8190">
<rect width="162.047" height="48" fill="white" transform="translate(0.483398)"/>
</clipPath>
</defs>
</svg>
