<svg width="56" height="56" viewBox="0 0 56 56" fill="none" xmlns="http://www.w3.org/2000/svg">
<g opacity="0.48">
<path d="M31.8981 16.9614C29.3491 17.678 26.6506 17.678 24.1016 16.9614" stroke="#7A788F" stroke-width="2.5" stroke-linecap="round" stroke-linejoin="round"/>
<path fill-rule="evenodd" clip-rule="evenodd" d="M44.9998 14.9609V14.9609C42.3083 10.4744 36.9464 8.34315 31.909 9.76007L29.682 10.3857C28.5826 10.6938 27.4201 10.6938 26.323 10.3857L24.0961 9.76007C19.0563 8.34315 13.6967 10.4744 11.0029 14.9609V14.9609C9.91748 16.77 9.34324 18.8405 9.34086 20.9531V21.1702C9.33157 28.3458 10.7765 35.4491 13.5847 42.0529L14.3503 43.8503C15.0786 45.5613 16.7617 46.6748 18.6244 46.6748V46.6748C20.5269 46.6748 22.2379 45.5123 22.9406 43.7452L25.1558 38.1662C25.6204 36.9944 26.7478 36.2264 28.0013 36.2264V36.2264C29.2549 36.2264 30.3823 36.9944 30.8469 38.1662L33.0621 43.7452C33.7647 45.5123 35.4758 46.6748 37.3783 46.6748V46.6748C39.241 46.6748 40.9241 45.5613 41.6524 43.8479L42.418 42.0505C45.2285 35.4468 46.6711 28.3435 46.6618 21.1678V20.9507C46.6595 18.8405 46.0852 16.77 44.9998 14.9609Z" stroke="#7A788F" stroke-width="2.5" stroke-linecap="round" stroke-linejoin="round"/>
</g>
</svg>
