<svg width="271" height="40" viewBox="0 0 271 40" fill="none" xmlns="http://www.w3.org/2000/svg">
<g clip-path="url(#clip0_5642_8202)">
<path d="M51.0408 30.1812H54.5703L59.2761 15.2009C59.8252 13.3185 60.2173 12.4558 60.6095 11.8283C60.9232 11.3577 61.1585 11.1224 61.5507 10.8871C61.9428 10.6518 62.335 10.5734 62.7271 10.495V10.1812H57.1585V10.495C57.6291 10.5734 57.8644 10.6518 58.335 10.8087C58.8056 11.044 59.1193 11.3577 59.1193 12.142C59.1193 13.0048 59.0408 13.4754 58.4918 15.3577L55.7467 24.2205H55.433L52.8448 15.2009C52.4526 13.7107 52.2173 12.9263 52.2173 12.2205C52.2173 11.593 52.531 11.044 52.9232 10.8871C53.3154 10.7303 53.7075 10.5734 54.1781 10.5734V10.2597H43.1977V10.5734C43.433 10.6518 43.8252 10.7303 44.2173 10.8871C44.6095 11.1224 44.8448 11.5146 45.1585 12.2205L46.0212 14.5734L42.884 24.2989H42.8056L40.2957 15.3577C39.9036 13.8675 39.5899 13.0048 39.5899 12.2205C39.5899 11.593 39.8252 11.2009 40.2957 10.9656C40.6095 10.7303 41.0016 10.6518 41.4722 10.5734V10.2597H30.335V10.5734C30.6487 10.6518 30.884 10.6518 31.1977 10.7303C31.433 10.8087 31.6683 10.8871 31.9036 11.1224C32.3742 11.593 32.7663 12.3773 33.7859 15.5146L38.6487 30.2597H42.0212L46.4918 15.8283H46.5703L51.0408 30.1812ZM71.8252 33.8675C72.6095 32.142 77.8644 18.2597 79.1193 15.044C79.6683 13.5538 80.1389 12.6126 80.4526 11.9852C80.8448 11.4361 81.2369 11.044 81.7075 10.8087C82.0212 10.5734 82.4134 10.495 82.8056 10.4165V10.1028H76.7663V10.4165C77.1585 10.495 77.4722 10.5734 77.8644 10.7303C78.4134 10.9656 78.7271 11.3577 78.7271 12.2205C78.7271 13.0832 78.5703 13.7891 77.9428 15.2793L74.884 23.5146H74.7271L71.9036 15.1224C71.433 13.7107 71.1193 12.8479 71.1193 12.0636C71.1193 11.4361 71.433 11.1224 71.7467 10.8087C72.1389 10.5734 72.6095 10.495 73.1585 10.4165V10.1028H61.3938V10.4165C61.8644 10.495 62.2565 10.5734 62.7271 10.8087C63.2761 11.1224 63.5114 11.593 63.982 12.3773C64.3742 13.0048 65.0016 14.3381 65.6291 15.9852L71.1193 29.946C71.3546 30.4165 71.5899 31.044 71.433 31.8283C71.433 32.142 70.884 33.9459 70.6487 34.3381C69.8644 36.142 69.1585 37.3185 68.2958 37.3185C67.9036 37.3185 67.7467 37.1616 67.5899 36.7695C67.5114 36.2205 67.3546 35.5146 66.9624 34.8871C66.4134 34.0244 65.5507 33.6322 64.3742 33.6322C62.7271 33.6322 61.7859 34.8087 61.7859 36.2205C61.7859 38.1812 63.5899 39.4361 65.6291 39.4361C67.3546 39.4361 68.531 38.8087 69.5507 37.7107C70.5703 36.6126 71.1977 35.3577 71.8252 33.8675ZM90.2565 -0.0932617H81.8644V0.377327C82.4134 0.455758 83.0409 0.455758 83.5114 0.847915C83.7467 1.00478 83.982 1.3185 84.1389 1.78909C84.2958 2.25968 84.3742 3.04399 84.3742 4.2989V26.1812C84.3742 27.5146 84.2958 28.8479 84.2173 30.1812H84.7663L87.9036 27.6714H88.1389C89.3938 29.4754 91.9036 30.5734 94.4918 30.5734C99.8252 30.5734 104.766 27.5146 104.766 20.2205C104.766 12.9263 101.002 9.78909 96.5311 9.78909C93.7075 9.78909 91.5899 10.9656 90.6487 13.2401H90.4918V5.47537C90.4918 3.35772 90.6487 1.16164 90.6487 0.220464C90.5703 -0.0148303 90.4134 -0.0932617 90.2565 -0.0932617ZM94.6487 11.044C97.0016 11.044 98.335 12.9263 98.335 20.142C98.335 27.044 96.9232 29.6322 94.335 29.6322C93.1585 29.6322 92.0605 29.1616 91.3546 27.6714C90.7271 26.4165 90.4918 24.8479 90.4918 22.4165V17.8675C90.4918 15.4361 91.0409 13.7891 91.5899 12.7695C92.4526 11.5146 93.4722 11.044 94.6487 11.044ZM224.531 -0.0932617H216.139V0.377327C216.688 0.455758 217.315 0.455758 217.786 0.847915C218.021 1.00478 218.257 1.3185 218.413 1.78909C218.57 2.25968 218.649 3.04399 218.649 4.2989V26.1812C218.649 27.5146 218.57 28.8479 218.492 30.1812H219.041L222.178 27.6714H222.413C223.668 29.4754 226.178 30.5734 228.766 30.5734C234.1 30.5734 239.041 27.5146 239.041 20.2205C239.041 12.9263 235.276 9.78909 230.806 9.78909C227.982 9.78909 225.864 10.9656 224.923 13.2401H224.766V5.47537C224.766 3.35772 224.923 1.16164 224.923 0.220464C224.845 -0.0148303 224.688 -0.0932617 224.531 -0.0932617ZM228.923 11.044C231.276 11.044 232.609 12.9263 232.609 20.142C232.609 27.044 231.198 29.6322 228.609 29.6322C227.433 29.6322 226.335 29.1616 225.629 27.6714C225.002 26.4165 224.766 24.8479 224.766 22.4165V17.8675C224.766 15.4361 225.315 13.7891 225.864 12.7695C226.727 11.5146 227.747 11.044 228.923 11.044ZM106.649 20.0636C106.649 26.495 111.198 30.495 117.159 30.495C123.119 30.495 127.668 26.495 127.668 20.0636C127.668 13.6322 123.041 9.63223 117.159 9.63223C111.355 9.63223 106.649 13.6322 106.649 20.0636ZM113.002 20.0636C113.002 15.4361 113.472 12.5342 114.649 11.3577C115.355 10.6518 116.217 10.4165 117.159 10.4165C118.021 10.4165 118.962 10.6518 119.668 11.3577C120.845 12.5342 121.315 15.5146 121.315 20.0636C121.315 24.5342 120.766 27.5146 119.668 28.7695C118.962 29.4754 118.1 29.7107 117.159 29.7107C116.296 29.7107 115.433 29.4754 114.649 28.7695C113.472 27.5146 113.002 24.5342 113.002 20.0636ZM137.708 14.8871H137.551C137.551 14.1028 137.629 10.8871 137.629 10.4165C137.629 10.1812 137.551 10.1812 137.315 10.1812H129.08V10.5734C129.629 10.5734 130.178 10.6518 130.649 10.8871C131.041 11.1224 131.276 11.5146 131.433 12.2205C131.59 12.7695 131.59 14.1812 131.59 14.8871V24.6126C131.59 26.0244 131.511 27.2009 131.433 27.9852C131.198 28.8479 130.884 29.0832 130.413 29.4754C130.021 29.6322 129.629 29.7107 129.159 29.7107V30.1028H140.217V29.7107C139.825 29.7107 139.433 29.5538 139.041 29.4754C138.649 29.3185 138.413 29.0048 138.178 28.4558C137.864 27.6714 137.708 26.6518 137.708 24.4558V20.6911C137.708 19.5146 137.786 18.1028 137.786 17.3185C138.178 14.5734 139.511 12.2205 140.453 12.2205C141.08 12.2205 141.159 13.0832 141.551 14.1028C142.021 15.1224 142.727 15.9852 144.296 15.9852C145.864 15.9852 147.041 14.7303 147.041 13.0048C147.041 11.9852 146.727 11.2793 146.257 10.7303C145.629 10.1028 144.609 9.71066 143.511 9.71066C141.943 9.71066 140.845 10.2597 140.06 10.9656C139.119 11.6714 138.257 12.7695 137.708 14.8871ZM157.708 10.3381C159.433 10.3381 159.904 11.2793 160.296 13.7107C160.453 15.6714 161.551 16.7695 163.198 16.7695C164.688 16.7695 165.864 15.9852 165.864 14.3381C165.864 13.0832 165.08 12.0636 164.217 11.4361C163.119 10.5734 161.472 9.71066 157.786 9.71066C151.982 9.71066 147.355 14.0244 147.355 20.2205C147.355 24.0636 148.845 26.7303 151.041 28.3773C152.688 29.7107 154.884 30.495 157.786 30.495C162.806 30.495 165.315 27.4361 166.257 23.9067L165.629 23.6714C164.845 26.1812 163.041 29.1616 158.962 29.1616C157.472 29.1616 156.453 28.6126 155.747 27.8283C154.649 26.6518 153.864 24.691 153.864 19.6714C153.864 15.2009 154.57 12.4558 155.511 11.3577C155.982 10.7303 156.766 10.3381 157.708 10.3381ZM184.923 23.044H184.531C184.217 23.593 182.492 26.1028 181.629 27.3577C180.609 28.8479 179.59 29.3969 177.708 29.3969H173.708V29.1616L184.374 10.4165V10.1028H168.688L167.119 16.6126H167.59C168.453 15.044 169.629 13.3969 170.413 12.5342C171.355 11.3577 172.217 10.8087 173.708 10.8087H177.472V10.9656L166.884 29.7107V30.0244H183.59L184.923 23.044ZM270.335 23.044H269.943C269.629 23.593 267.904 26.1028 267.041 27.3577C266.021 28.8479 265.002 29.3969 263.119 29.3969H259.119V29.1616L269.786 10.4165V10.1028H254.1L252.531 16.6126H253.002C253.864 15.044 255.041 13.3969 255.825 12.5342C256.766 11.3577 257.629 10.8087 259.119 10.8087H262.884V10.9656L252.296 29.7891V30.1028H269.002L270.335 23.044ZM206.884 29.1616L206.727 28.7695C206.335 29.0048 205.864 29.1616 205.315 29.1616C204.845 29.1616 204.453 29.0048 204.217 28.6126C203.904 28.142 203.747 27.3577 203.747 25.3969V14.7303C203.747 11.4361 201.08 9.63223 195.355 9.63223C192.845 9.63223 190.021 10.4165 188.688 11.6714C187.904 12.2989 187.511 13.1616 187.511 14.2597C187.511 15.7499 188.609 16.5342 190.1 16.5342C191.904 16.5342 192.923 15.7499 193.002 13.7891C193.08 12.4558 193.002 11.5146 193.472 10.9656C193.864 10.5734 194.57 10.3381 195.355 10.3381C196.923 10.3381 197.708 10.9656 197.708 13.3185V16.3773C197.629 18.0244 196.217 19.044 192.453 19.8283C190.413 20.4558 188.845 20.7695 187.668 21.8675C186.727 22.7303 186.335 24.142 186.335 25.3185C186.335 28.691 188.845 30.4165 192.296 30.4165C195.355 30.4165 197.08 29.0832 197.708 27.4361H197.864C198.021 28.6126 198.257 29.2401 198.806 29.7107C199.276 30.1028 200.296 30.4165 201.708 30.4165C204.453 30.495 206.257 29.7891 206.884 29.1616ZM197.708 18.3381V25.7891C197.708 27.7499 196.139 28.8479 194.806 28.8479C193.237 28.8479 192.374 27.7499 192.374 24.691C192.374 23.2009 192.531 22.2597 193.002 21.5538C193.472 20.9263 194.178 20.3773 195.198 19.9067C196.217 19.4361 197.237 19.044 197.708 18.3381ZM211.355 30.6518C213.472 30.6518 214.806 29.1616 214.806 27.2793C214.806 25.4754 213.472 23.9852 211.355 23.9852C209.315 23.9852 207.982 25.4754 207.982 27.2793C207.982 29.1616 209.315 30.6518 211.355 30.6518ZM245.472 6.73027C247.59 6.73027 248.923 5.24007 248.923 3.35772C248.923 1.5538 247.59 0.063601 245.472 0.063601C243.433 0.063601 242.1 1.5538 242.1 3.35772C242.1 5.24007 243.433 6.73027 245.472 6.73027ZM248.845 14.1028C248.845 12.3773 248.923 11.3577 248.923 10.4165C248.923 10.1028 248.845 10.1028 248.609 10.1028H240.453V10.495C241.08 10.5734 241.472 10.5734 241.864 10.8871C242.257 11.1224 242.492 11.5146 242.649 12.142C242.727 12.6911 242.727 14.1028 242.727 14.8087V25.0832C242.727 26.4165 242.727 27.2009 242.57 28.0636C242.413 28.691 242.021 29.0832 241.472 29.3185C241.237 29.4754 240.766 29.5538 240.296 29.6322V30.0244H251.355V29.6322C250.884 29.6322 250.492 29.4754 250.1 29.3185C249.629 29.0832 249.237 28.6126 249.002 27.8283C248.923 27.1224 248.923 26.2597 248.923 25.0048V14.1028H248.845Z" fill="#7A788F"/>
<path opacity="0.6" d="M0.530273 38.5735H25.0009V-0.25H0.530273V38.5735Z" fill="#7A788F"/>
</g>
<defs>
<clipPath id="clip0_5642_8202">
<rect width="269.804" height="40" fill="white" transform="translate(0.530273)"/>
</clipPath>
</defs>
</svg>
