<svg width="98" height="80" viewBox="0 0 98 80" fill="none" xmlns="http://www.w3.org/2000/svg">
<g opacity="0.2">
<rect x="0.0869141" width="1" height="80" rx="0.5" fill="#242529"/>
</g>
<g opacity="0.48">
<path d="M97.0868 68.4333V59.7953C96.1534 59.9286 95.2011 59.9953 94.2296 59.9953C84.6582 59.9953 76.6487 53.2715 74.6868 44.281H91.3725V35.7095H74.6868C76.6487 26.7191 84.6487 19.9953 94.2296 19.9953C95.2011 19.9953 96.1534 20.0619 97.0868 20.1953V11.5667C96.1439 11.4714 95.1915 11.4238 94.2296 11.4238C78.4487 11.4238 65.6582 24.2143 65.6582 39.9953C65.6582 55.7762 78.4487 68.5667 94.2296 68.5667C95.1915 68.5762 96.1439 68.5286 97.0868 68.4333Z" fill="#242529"/>
<path d="M17.0869 40.005C17.0869 55.786 29.8774 68.5765 45.6583 68.5765C46.6869 68.5765 47.706 68.5193 48.706 68.4145V59.7765C47.7155 59.9288 46.6964 60.005 45.6583 60.005C34.6107 60.005 25.6583 51.0526 25.6583 40.005C25.6583 28.9574 34.6107 20.005 45.6583 20.005C46.6964 20.005 47.7155 20.0812 48.706 20.2336V11.5955C47.706 11.4907 46.6869 11.4336 45.6583 11.4336C29.8774 11.4336 17.0869 24.2241 17.0869 40.005Z" fill="#242529"/>
</g>
</svg>
