<svg width="144" height="80" viewBox="0 0 144 80" fill="none" xmlns="http://www.w3.org/2000/svg">
<g opacity="0.2">
<rect x="0.703125" width="1" height="80" rx="0.5" fill="#242529"/>
</g>
<g opacity="0.48">
<path d="M22.7591 45.9437C19.8631 45.9437 17.8311 44.4397 17.7031 41.8637H19.5271C19.6551 43.3997 20.5671 44.4397 22.7111 44.4397C24.5511 44.4397 25.1111 43.6397 25.1111 42.5997C25.1111 41.1437 23.9911 40.9357 21.9111 40.4077C20.1191 39.9277 18.1511 39.3517 18.1511 37.1757C18.1511 35.1917 19.6871 34.0557 22.1511 34.0557C24.7591 34.0557 26.4551 35.3837 26.6311 37.6877H24.8071C24.6151 36.3117 23.8311 35.5597 22.1671 35.5597C20.7271 35.5597 19.9911 36.0877 19.9911 37.0797C19.9911 38.3597 21.1911 38.6317 22.6631 38.9997C24.8711 39.5597 26.9511 40.0877 26.9511 42.5037C26.9511 44.4717 25.6231 45.9437 22.7591 45.9437Z" fill="#242529"/>
<path d="M27.1956 45.7197L31.4516 34.2797H33.3556L37.6436 45.7197H35.7236L34.7796 42.9677H29.9956L29.0516 45.7197H27.1956ZM30.5236 41.4797H34.2836L32.4116 35.9117H32.3796L30.5236 41.4797Z" fill="#242529"/>
<path d="M38.8301 45.7197V34.2797H43.5981C46.1261 34.2797 47.4861 35.4637 47.4861 37.5757C47.4861 39.0317 46.6061 40.0877 45.3421 40.3757V40.4077C47.9981 40.9037 47.0221 45.4157 47.6461 45.6077V45.7197H45.7581C45.2461 45.2397 46.3341 41.2397 43.5341 41.2397H40.5901V45.7197H38.8301ZM40.5901 39.7197H43.2141C44.8301 39.7197 45.7101 39.0157 45.7101 37.7037C45.7101 36.4717 45.0061 35.7997 43.2461 35.7997H40.5901V39.7197Z" fill="#242529"/>
<path d="M57.4579 45.9437C54.2099 45.9437 52.1139 43.4477 52.1139 40.0077C52.1139 36.5517 54.2259 34.0557 57.4739 34.0557C60.3379 34.0557 62.1139 35.8797 62.3859 38.1677H60.5459C60.3379 37.0477 59.6339 35.5757 57.4419 35.5757C54.9139 35.5757 53.9539 37.7197 53.9539 39.9917C53.9539 42.2797 54.9139 44.4237 57.4419 44.4237C59.6499 44.4237 60.4339 42.9517 60.5459 41.5597H62.3859C62.1299 44.1037 60.3379 45.9437 57.4579 45.9437Z" fill="#242529"/>
<path d="M69.0268 45.9437C65.6028 45.9437 63.4108 43.4317 63.4108 39.9917C63.4108 36.5517 65.6028 34.0557 69.0268 34.0557C72.4508 34.0557 74.6427 36.5517 74.6427 39.9917C74.6427 43.4317 72.4508 45.9437 69.0268 45.9437ZM65.2508 39.9917C65.2508 42.3437 66.3228 44.4237 69.0268 44.4237C71.7308 44.4237 72.8028 42.3437 72.8028 39.9917C72.8028 37.6397 71.7308 35.5757 69.0268 35.5757C66.3228 35.5757 65.2508 37.6397 65.2508 39.9917Z" fill="#242529"/>
<path d="M76.3614 45.7197V34.2797H78.6814L81.9774 43.2717H82.0094L85.3214 34.2797H87.6414V45.7197H85.9134V36.8397H85.8814L82.7294 45.7197H81.2734L78.1214 36.8397H78.0894V45.7197H76.3614Z" fill="#242529"/>
<path d="M89.9082 45.7197V34.2797H94.6762C96.8362 34.2797 98.4202 35.2877 98.4202 37.6877C98.4202 40.0877 96.8362 41.0797 94.6762 41.0797H91.6683V45.7197H89.9082ZM91.6683 39.5597H94.5962C95.9242 39.5597 96.5962 38.9677 96.5962 37.6877C96.5962 36.3917 95.9242 35.7997 94.5962 35.7997H91.6683V39.5597Z" fill="#242529"/>
<path d="M99.8926 45.7197V34.2797H101.653V44.1997H107.445V45.7197H99.8926Z" fill="#242529"/>
<path d="M108.814 45.7197V34.2797H110.575V45.7197H108.814Z" fill="#242529"/>
<path d="M111.774 45.7197L116.03 34.2797H117.934L122.222 45.7197H120.302L119.358 42.9677H114.574L113.63 45.7197H111.774ZM115.102 41.4797H118.862L116.99 35.9117H116.958L115.102 41.4797Z" fill="#242529"/>
<path d="M123.408 45.7197V34.2797H125.424L130.736 43.0797H130.768V34.2797H132.544V45.7197H130.528L125.2 36.9197H125.168V45.7197H123.408Z" fill="#242529"/>
<path d="M137.614 45.7197V35.7997H133.918V34.2797H143.086V35.7997H139.39V45.7197H137.614Z" fill="#242529"/>
</g>
</svg>
