<svg width="177" height="80" viewBox="0 0 177 80" fill="none" xmlns="http://www.w3.org/2000/svg">
<g opacity="0.2">
<rect x="0.607422" width="1" height="80" rx="0.5" fill="#242529"/>
</g>
<g opacity="0.48">
<path d="M36.1285 32.3667V25.2705H17.6074V32.3667H21.8566V47.5457H17.6074V54.6418H36.1285V47.5457H31.8793V32.3667H36.1285Z" fill="#242529"/>
<path d="M56.568 36.5402C55.4232 36.2072 49.5329 34.5213 48.5131 34.1883C47.4932 33.8552 46.6607 33.3765 46.6607 32.7729C46.6607 32.1693 47.5973 31.5241 49.4913 31.5241C55.4649 31.5241 58.3345 35.2081 58.3345 35.2081C58.3345 35.2081 58.6579 35.6389 58.7663 35.7934H64.5295V25.7424H58.3425V27.571C57.8699 27.2446 54.3812 24.9678 48.971 24.9678C41.8319 24.9678 37.8564 28.6726 37.8564 34.2091C37.8564 39.7455 42.8726 42.035 44.2671 42.6178C45.6616 43.2006 51.1148 44.7408 53.4459 45.4693C55.7771 46.1978 56.6304 46.7181 56.6304 47.0928C56.6304 47.4674 55.6106 48.4457 52.6966 48.4457C47.6209 48.4457 45.007 45.4525 44.5483 44.8729V44.8684C44.4024 44.6729 44.2313 44.4416 44.1732 44.3545C44.1059 44.2538 43.9499 44.0301 43.8416 43.8756H38.0784V54.609H44.5483V52.3676C45.3011 52.8687 49.1546 55.2726 53.7789 55.2726C58.9408 55.2726 65.5179 53.0247 65.5179 46.0105C65.5179 38.9962 57.7127 36.8732 56.568 36.5402Z" fill="#242529"/>
<path d="M81.9455 24.8691C73.3406 24.8691 66.2832 29.1714 66.2832 40.1539C66.2832 51.1364 73.9445 55.25 81.9831 55.25C90.0217 55.25 97.6075 51.174 97.6075 40.2673C97.6075 29.3606 90.022 24.8691 81.9455 24.8691ZM82.021 47.9284C79.0772 47.9284 77.1901 47.2491 77.1901 40.1163C77.1901 32.9833 78.5866 32.2285 82.1341 32.2285C84.2852 32.2285 86.8895 32.3794 86.8895 39.8898C86.8895 47.4003 84.9649 47.9284 82.021 47.9284Z" fill="#242529"/>
<path d="M29.9481 22.0311C31.8825 19.1748 34.2612 16.6429 36.9882 14.5402C38.0908 15.3554 39.2629 16.0949 40.495 16.7539C38.4306 19.0551 36.581 21.6045 36.2747 22.0311H37.5133C38.2568 21.0291 39.7947 19.0133 41.4163 17.2262C43.1888 18.0975 45.0725 18.8102 47.038 19.353C46.5149 20.4629 46.1194 21.4335 45.8873 22.0311H46.9634C47.2107 21.4157 47.573 20.5574 48.0251 19.6089C50.5324 20.2215 53.1596 20.5649 55.8472 20.6171V22.0313H56.8463V20.622C59.5143 20.6025 62.127 20.2984 64.6255 19.7271C65.0514 20.6281 65.3942 21.4415 65.6312 22.0311H66.7073C66.4842 21.4572 66.1109 20.5397 65.6179 19.4842C67.6185 18.9637 69.5382 18.2697 71.3461 17.412C72.9057 19.1517 74.3636 21.0639 75.0814 22.0311H76.3199C76.0231 21.6177 74.2692 19.1995 72.2763 16.9518C73.6465 16.2436 74.9456 15.4378 76.1599 14.5402C78.8869 16.6429 81.2658 19.1748 83.2 22.0311H84.4017C78.4926 12.9112 68.2266 6.86426 56.5739 6.86426C44.9212 6.86426 34.6552 12.9112 28.7461 22.0311H29.9481ZM47.4838 18.4394C45.6142 17.9343 43.8204 17.2723 42.1293 16.4624C42.3591 16.2236 42.5887 15.9923 42.8157 15.7734C45.1313 13.5403 48.9401 11.0883 49.775 10.5604C50.4525 10.9326 51.1918 11.2473 51.9782 11.4971C51.3675 12.298 50.1682 13.9238 48.8623 15.986C48.354 16.7886 47.8909 17.6321 47.4838 18.4394ZM55.8472 19.6177C53.3169 19.5671 50.8429 19.2521 48.4782 18.6913C48.848 17.9683 49.2606 17.2243 49.7064 16.5207C51.2109 14.1451 52.5683 12.3614 53.0206 11.7811C53.9229 11.9931 54.8712 12.1271 55.8472 12.1709V19.6177ZM56.8463 19.6227V12.1822C57.8092 12.1659 58.7513 12.064 59.653 11.8827C60.1698 12.5512 61.4633 14.2703 62.8884 16.5207C63.3573 17.2611 63.7897 18.0461 64.1742 18.8045C61.8178 19.3257 59.3581 19.6041 56.8463 19.6227ZM65.1758 18.5679C64.7533 17.722 64.2676 16.8312 63.7323 15.986C62.4938 14.0302 61.3509 12.4666 60.7153 11.6271C61.5517 11.3922 62.3413 11.0868 63.0663 10.7173C64.2383 11.4686 67.6425 13.7131 69.7789 15.7734C70.0625 16.0469 70.3499 16.3392 70.637 16.6422C68.9106 17.4393 67.0807 18.0845 65.1758 18.5679ZM75.3234 13.9156C74.1513 14.7617 72.899 15.5196 71.5804 16.186C71.2119 15.7907 70.8403 15.4089 70.4725 15.0542C68.4742 13.1272 65.4988 11.1056 64.041 10.1563C64.5362 9.83529 64.9891 9.48029 65.3929 9.09382C69.0013 10.1249 72.3514 11.7735 75.3234 13.9156ZM56.5742 7.86332C59.2124 7.86332 61.7765 8.18518 64.2317 8.78761C62.3684 10.301 59.5766 11.1889 56.5742 11.1889C53.5582 11.1889 50.774 10.3039 48.9133 8.78845C51.3693 8.18551 53.9345 7.86332 56.5742 7.86332ZM47.755 9.09382C48.0837 9.40886 48.4435 9.70358 48.8333 9.97533C47.5126 10.8252 44.2595 12.9933 42.1223 15.054C41.8146 15.3508 41.5044 15.6668 41.1954 15.9935C40.0133 15.3746 38.886 14.6814 37.8252 13.9156C40.7967 11.7735 44.1466 10.125 47.755 9.09382Z" fill="#242529"/>
<path d="M83.2018 57.9699C81.3086 60.7661 78.9891 63.2511 76.3344 65.3271C75.0701 64.3764 73.7131 63.5265 72.2779 62.7842C74.0068 60.834 75.5558 58.7557 76.1293 57.9701H74.8851C74.1182 58.9941 72.7756 60.7313 71.3476 62.3243C69.5397 61.4663 67.6201 60.7717 65.6192 60.2514C66.0423 59.3454 66.3765 58.5425 66.6039 57.9701H65.5246C65.2958 58.5282 64.9916 59.2364 64.6261 60.0095C62.1291 59.439 59.5168 59.1351 56.8466 59.1158V57.9701H55.8475V59.1203C53.1577 59.1724 50.5307 59.5154 48.0249 60.1272C47.6346 59.3085 47.3111 58.5563 47.0708 57.9701H45.9913C46.2296 58.5702 46.5853 59.4234 47.0375 60.3828C45.0715 60.9258 43.1871 61.6374 41.4148 62.5093C39.9255 60.8677 38.5074 59.0339 37.7103 57.9699H36.4661C37.0586 58.7816 38.6949 60.9766 40.4952 62.983C39.1986 63.6773 37.9674 64.4598 36.8143 65.327C34.1595 63.2509 31.84 60.7659 29.9469 57.9697H28.7471C34.6563 67.0896 44.922 73.1366 56.5745 73.1366C68.2269 73.1366 78.4927 67.0898 84.402 57.9697L83.2018 57.9699ZM65.1764 61.1682C67.082 61.6514 68.9119 62.2965 70.6385 63.0939C70.3509 63.3973 70.0633 63.69 69.7793 63.9641C67.6494 66.0176 64.2561 68.257 63.0752 69.0143C62.3503 68.6433 61.5597 68.338 60.7206 68.103C61.3574 67.262 62.4973 65.7014 63.7325 63.7511C64.2681 62.9057 64.7538 62.0144 65.1764 61.1682ZM56.8464 60.1147C59.3602 60.1334 61.8199 60.4109 64.1749 60.9314C63.7902 61.6904 63.3578 62.4755 62.8884 63.2166C61.4653 65.4638 60.1738 67.181 59.6555 67.8516C58.7563 67.6724 57.8142 67.5713 56.8463 67.5554V60.1147H56.8464ZM55.8474 60.1197V67.5657C54.8676 67.6091 53.9184 67.7415 53.0172 67.952C52.5618 67.3674 51.2087 65.5887 49.7065 63.2166C49.2604 62.5124 48.8475 61.768 48.4775 61.0443C50.8409 60.4842 53.3149 60.1702 55.8474 60.1197ZM47.4834 61.2971C47.8907 62.1048 48.3541 62.9484 48.8625 63.7513C50.1674 65.8118 51.3658 67.4366 51.977 68.2382C51.1894 68.4878 50.451 68.8029 49.7738 69.176C48.9357 68.6458 45.1303 66.1956 42.816 63.9641C42.5887 63.745 42.3591 63.5133 42.129 63.2744C43.8197 62.4642 45.6134 61.8019 47.4834 61.2971ZM37.6444 65.9534C38.7578 65.1348 39.945 64.3968 41.194 63.7426C41.5034 64.0696 41.8143 64.3862 42.1223 64.6832C44.259 66.7435 47.5111 68.9111 48.8323 69.7613C48.3616 70.0908 47.9325 70.4531 47.5512 70.8464C43.9476 69.7904 40.6049 68.1187 37.6444 65.9534ZM56.5744 72.1377C53.8498 72.1377 51.2036 71.7955 48.6756 71.1543C50.5216 69.5322 53.4528 68.5486 56.5744 68.5486C59.6921 68.5486 62.6262 69.5328 64.4723 71.1545C61.9445 71.7957 59.2986 72.1377 56.5744 72.1377ZM65.5969 70.8464C65.1436 70.3794 64.6256 69.9534 64.0477 69.5766C65.5079 68.6257 68.4773 66.6073 70.4726 64.6831C70.8406 64.3282 71.2122 63.9463 71.5811 63.5506C72.9669 64.2516 74.2804 65.0536 75.5042 65.9532C72.5435 68.1188 69.2006 69.7906 65.5969 70.8464Z" fill="#242529"/>
</g>
<g opacity="0.48">
<path d="M113.607 45.7197V34.2797H115.367V45.7197H113.607Z" fill="#242529"/>
<path d="M121.943 45.9437C119.047 45.9437 117.015 44.4397 116.887 41.8637H118.711C118.839 43.3997 119.751 44.4397 121.895 44.4397C123.735 44.4397 124.295 43.6397 124.295 42.5997C124.295 41.1437 123.175 40.9357 121.095 40.4077C119.303 39.9277 117.335 39.3517 117.335 37.1757C117.335 35.1917 118.871 34.0557 121.335 34.0557C123.943 34.0557 125.639 35.3837 125.815 37.6877H123.991C123.799 36.3117 123.015 35.5597 121.351 35.5597C119.911 35.5597 119.175 36.0877 119.175 37.0797C119.175 38.3597 120.375 38.6317 121.847 38.9997C124.055 39.5597 126.135 40.0877 126.135 42.5037C126.135 44.4717 124.807 45.9437 121.943 45.9437Z" fill="#242529"/>
<path d="M132.804 45.9437C129.38 45.9437 127.188 43.4317 127.188 39.9917C127.188 36.5517 129.38 34.0557 132.804 34.0557C136.228 34.0557 138.42 36.5517 138.42 39.9917C138.42 43.4317 136.228 45.9437 132.804 45.9437ZM129.028 39.9917C129.028 42.3437 130.1 44.4237 132.804 44.4237C135.508 44.4237 136.58 42.3437 136.58 39.9917C136.58 37.6397 135.508 35.5757 132.804 35.5757C130.1 35.5757 129.028 37.6397 129.028 39.9917Z" fill="#242529"/>
<path d="M146.906 45.9437C144.842 45.9437 143.482 44.5677 143.274 42.9197H145.066C145.194 43.8317 145.738 44.5037 146.922 44.5037C148.97 44.5037 149.514 42.5837 149.514 40.6797V40.5197L149.466 40.5037C148.89 41.4317 147.866 41.9597 146.618 41.9597C144.474 41.9597 142.986 40.4557 142.986 38.2797C142.986 36.1357 144.474 34.4397 146.938 34.4397C150.106 34.4397 151.242 36.7917 151.242 40.1677C151.242 43.7997 149.658 45.9437 146.906 45.9437ZM144.746 38.1837C144.746 39.6397 145.594 40.5037 146.874 40.5037C148.378 40.5037 149.322 39.5437 149.322 38.1517C149.322 36.8077 148.49 35.8797 146.97 35.8797C145.53 35.8797 144.746 36.7917 144.746 38.1837Z" fill="#242529"/>
<path d="M157.044 45.9437C153.956 45.9437 152.644 43.3677 152.644 40.1997C152.644 37.0317 153.956 34.4397 157.044 34.4397C160.132 34.4397 161.428 37.0317 161.428 40.1997C161.428 43.3677 160.132 45.9437 157.044 45.9437ZM154.452 40.1997C154.452 42.4717 155.044 44.4557 157.044 44.4557C159.028 44.4557 159.62 42.4717 159.62 40.1997C159.62 37.9277 159.028 35.9277 157.044 35.9277C155.044 35.9277 154.452 37.9277 154.452 40.1997Z" fill="#242529"/>
<path d="M167.2 45.9437C164.112 45.9437 162.8 43.3677 162.8 40.1997C162.8 37.0317 164.112 34.4397 167.2 34.4397C170.288 34.4397 171.584 37.0317 171.584 40.1997C171.584 43.3677 170.288 45.9437 167.2 45.9437ZM164.608 40.1997C164.608 42.4717 165.2 44.4557 167.2 44.4557C169.184 44.4557 169.776 42.4717 169.776 40.1997C169.776 37.9277 169.184 35.9277 167.2 35.9277C165.2 35.9277 164.608 37.9277 164.608 40.1997Z" fill="#242529"/>
<path d="M174.796 37.5117C174.316 37.9597 173.468 38.0397 172.476 38.0397V36.6317C174.428 36.5837 175.004 35.9917 175.148 34.6637H176.524V45.7197H174.796V37.5117Z" fill="#242529"/>
</g>
</svg>
