<svg width="186" height="80" viewBox="0 0 186 80" fill="none" xmlns="http://www.w3.org/2000/svg">
<g opacity="0.2">
<rect x="0.914062" width="1" height="80" rx="0.5" fill="#242529"/>
</g>
<g opacity="0.48">
<path d="M36.4351 32.3667V25.2705H17.9141V32.3667H22.1632V47.5457H17.9141V54.6418H36.4351V47.5457H32.186V32.3667H36.4351Z" fill="#242529"/>
<path d="M56.8737 36.5402C55.7289 36.2072 49.8386 34.5213 48.8187 34.1883C47.7989 33.8552 46.9663 33.3765 46.9663 32.7729C46.9663 32.1693 47.9029 31.5241 49.797 31.5241C55.7705 31.5241 58.6402 35.2081 58.6402 35.2081C58.6402 35.2081 58.9635 35.6389 59.0719 35.7934H64.8352V25.7424H58.6481V27.571C58.1756 27.2446 54.6869 24.9678 49.2766 24.9678C42.1375 24.9678 38.1621 28.6726 38.1621 34.2091C38.1621 39.7455 43.1782 42.035 44.5727 42.6178C45.9673 43.2006 51.4205 44.7408 53.7516 45.4693C56.0827 46.1978 56.9361 46.7181 56.9361 47.0928C56.9361 47.4674 55.9162 48.4457 53.0023 48.4457C47.9266 48.4457 45.3127 45.4525 44.854 44.8729V44.8684C44.7081 44.6729 44.5369 44.4416 44.4788 44.3545C44.4116 44.2538 44.2555 44.0301 44.1473 43.8756H38.3841V54.609H44.854V52.3676C45.6068 52.8687 49.4603 55.2726 54.0846 55.2726C59.2464 55.2726 65.8236 53.0247 65.8236 46.0105C65.8236 38.9962 58.0184 36.8732 56.8737 36.5402Z" fill="#242529"/>
<path d="M82.2521 24.8691C73.6472 24.8691 66.5898 29.1714 66.5898 40.1539C66.5898 51.1364 74.2511 55.25 82.2897 55.25C90.3283 55.25 97.9142 51.174 97.9142 40.2673C97.9142 29.3606 90.3287 24.8691 82.2521 24.8691ZM82.3277 47.9284C79.3838 47.9284 77.4967 47.2491 77.4967 40.1163C77.4967 32.9833 78.8933 32.2285 82.4407 32.2285C84.5919 32.2285 87.1961 32.3794 87.1961 39.8898C87.1961 47.4003 85.2716 47.9284 82.3277 47.9284Z" fill="#242529"/>
<path d="M30.2548 22.0311C32.1891 19.1748 34.5679 16.6429 37.2948 14.5402C38.3974 15.3554 39.5695 16.0949 40.8017 16.7539C38.7373 19.0551 36.8877 21.6045 36.5813 22.0311H37.82C38.5634 21.0291 40.1013 19.0133 41.723 17.2262C43.4955 18.0975 45.3792 18.8102 47.3447 19.353C46.8215 20.4629 46.426 21.4335 46.1939 22.0311H47.2701C47.5173 21.4157 47.8797 20.5574 48.3317 19.6089C50.839 20.2215 53.4662 20.5649 56.1539 20.6171V22.0313H57.1529V20.622C59.8209 20.6025 62.4336 20.2984 64.9321 19.7271C65.358 20.6281 65.7009 21.4415 65.9378 22.0311H67.014C66.7909 21.4572 66.4175 20.5397 65.9245 19.4842C67.9251 18.9637 69.8448 18.2697 71.6528 17.412C73.2123 19.1517 74.6703 21.0639 75.3881 22.0311H76.6266C76.3297 21.6177 74.5759 19.1995 72.5829 16.9518C73.9531 16.2436 75.2522 15.4378 76.4666 14.5402C79.1935 16.6429 81.5724 19.1748 83.5066 22.0311H84.7083C78.7992 12.9112 68.5332 6.86426 56.8805 6.86426C45.2278 6.86426 34.9618 12.9112 29.0527 22.0311H30.2548ZM47.7904 18.4394C45.9208 17.9343 44.127 17.2723 42.436 16.4624C42.6657 16.2236 42.8954 15.9923 43.1223 15.7734C45.438 13.5403 49.2467 11.0883 50.0816 10.5604C50.7591 10.9326 51.4984 11.2473 52.2849 11.4971C51.6741 12.298 50.4749 13.9238 49.169 15.986C48.6606 16.7886 48.1975 17.6321 47.7904 18.4394ZM56.1539 19.6177C53.6236 19.5671 51.1496 19.2521 48.7848 18.6913C49.1546 17.9683 49.5672 17.2243 50.013 16.5207C51.5176 14.1451 52.875 12.3614 53.3272 11.7811C54.2295 11.9931 55.1778 12.1271 56.1539 12.1709V19.6177ZM57.1529 19.6227V12.1822C58.1159 12.1659 59.058 12.064 59.9596 11.8827C60.4765 12.5512 61.7699 14.2703 63.1951 16.5207C63.664 17.2611 64.0964 18.0461 64.4809 18.8045C62.1244 19.3257 59.6647 19.6041 57.1529 19.6227ZM65.4824 18.5679C65.06 17.722 64.5743 16.8312 64.0389 15.986C62.8004 14.0302 61.6575 12.4666 61.022 11.6271C61.8583 11.3922 62.6479 11.0868 63.3729 10.7173C64.545 11.4686 67.9491 13.7131 70.0856 15.7734C70.3691 16.0469 70.6565 16.3392 70.9436 16.6422C69.2172 17.4393 67.3873 18.0845 65.4824 18.5679ZM75.63 13.9156C74.458 14.7617 73.2056 15.5196 71.8871 16.186C71.5186 15.7907 71.1469 15.4089 70.7791 15.0542C68.7808 13.1272 65.8055 11.1056 64.3477 10.1563C64.8429 9.83529 65.2958 9.48029 65.6995 9.09382C69.308 10.1249 72.658 11.7735 75.63 13.9156ZM56.8809 7.86332C59.519 7.86332 62.0831 8.18518 64.5383 8.78761C62.6751 10.301 59.8832 11.1889 56.8809 11.1889C53.8649 11.1889 51.0807 10.3039 49.2199 8.78845C51.6759 8.18551 54.2412 7.86332 56.8809 7.86332ZM48.0617 9.09382C48.3904 9.40886 48.7502 9.70358 49.14 9.97533C47.8192 10.8252 44.5661 12.9933 42.429 15.054C42.1213 15.3508 41.8111 15.6668 41.502 15.9935C40.32 15.3746 39.1927 14.6814 38.1318 13.9156C41.1034 11.7735 44.4532 10.125 48.0617 9.09382Z" fill="#242529"/>
<path d="M83.5074 57.9699C81.6142 60.7661 79.2947 63.2511 76.6401 65.3271C75.3758 64.3764 74.0187 63.5265 72.5836 62.7842C74.3124 60.834 75.8615 58.7557 76.4349 57.9701H75.1908C74.4238 58.9941 73.0813 60.7313 71.6533 62.3243C69.8453 61.4663 67.9258 60.7717 65.9248 60.2514C66.3479 59.3454 66.6821 58.5425 66.9096 57.9701H65.8303C65.6015 58.5282 65.2973 59.2364 64.9318 60.0095C62.4348 59.439 59.8224 59.1351 57.1523 59.1158V57.9701H56.1532V59.1203C53.4634 59.1724 50.8364 59.5154 48.3306 60.1272C47.9403 59.3085 47.6167 58.5563 47.3765 57.9701H46.297C46.5353 58.5702 46.8909 59.4234 47.3432 60.3828C45.3772 60.9258 43.4928 61.6374 41.7205 62.5093C40.2312 60.8677 38.813 59.0339 38.016 57.9699H36.7718C37.3642 58.7816 39.0005 60.9766 40.8008 62.983C39.5042 63.6773 38.273 64.4598 37.12 65.327C34.4651 63.2509 32.1457 60.7659 30.2526 57.9697H29.0527C34.962 67.0896 45.2277 73.1366 56.8802 73.1366C68.5326 73.1366 78.7984 67.0898 84.7077 57.9697L83.5074 57.9699ZM65.4821 61.1682C67.3876 61.6514 69.2176 62.2965 70.9441 63.0939C70.6566 63.3973 70.369 63.69 70.0849 63.9641C67.9551 66.0176 64.5618 68.257 63.3809 69.0143C62.6559 68.6433 61.8653 68.338 61.0263 68.103C61.663 67.262 62.8029 65.7014 64.0381 63.7511C64.5738 62.9057 65.0595 62.0144 65.4821 61.1682ZM57.1521 60.1147C59.6659 60.1334 62.1256 60.4109 64.4805 60.9314C64.0959 61.6904 63.6635 62.4755 63.1941 63.2166C61.7709 65.4638 60.4795 67.181 59.9611 67.8516C59.062 67.6724 58.1199 67.5713 57.1519 67.5554V60.1147H57.1521ZM56.153 60.1197V67.5657C55.1733 67.6091 54.224 67.7415 53.3229 67.952C52.8675 67.3674 51.5144 65.5887 50.0122 63.2166C49.5661 62.5124 49.1531 61.768 48.7831 61.0443C51.1466 60.4842 53.6206 60.1702 56.153 60.1197ZM47.7891 61.2971C48.1964 62.1048 48.6598 62.9484 49.1681 63.7513C50.4731 65.8118 51.6714 67.4366 52.2827 68.2382C51.4951 68.4878 50.7566 68.8029 50.0794 69.176C49.2414 68.6458 45.436 66.1956 43.1217 63.9641C42.8944 63.745 42.6647 63.5133 42.4346 63.2744C44.1254 62.4642 45.919 61.8019 47.7891 61.2971ZM37.95 65.9534C39.0635 65.1348 40.2507 64.3968 41.4997 63.7426C41.8091 64.0696 42.1199 64.3862 42.428 64.6832C44.5646 66.7435 47.8167 68.9111 49.138 69.7613C48.6673 70.0908 48.2382 70.4531 47.8569 70.8464C44.2533 69.7904 40.9106 68.1187 37.95 65.9534ZM56.88 72.1377C54.1554 72.1377 51.5093 71.7955 48.9813 71.1543C50.8272 69.5322 53.7585 68.5486 56.88 68.5486C59.9978 68.5486 62.9318 69.5328 64.7779 71.1545C62.2501 71.7957 59.6043 72.1377 56.88 72.1377ZM65.9025 70.8464C65.4493 70.3794 64.9313 69.9534 64.3533 69.5766C65.8136 68.6257 68.783 66.6073 70.7783 64.6831C71.1463 64.3282 71.5179 63.9463 71.8867 63.5506C73.2726 64.2516 74.586 65.0536 75.8099 65.9532C72.8492 68.1188 69.5063 69.7906 65.9025 70.8464Z" fill="#242529"/>
</g>
<g opacity="0.48">
<path d="M113.914 45.7197V34.2797H115.674V45.7197H113.914Z" fill="#242529"/>
<path d="M122.249 45.9437C119.353 45.9437 117.321 44.4397 117.193 41.8637H119.017C119.145 43.3997 120.057 44.4397 122.201 44.4397C124.041 44.4397 124.601 43.6397 124.601 42.5997C124.601 41.1437 123.481 40.9357 121.401 40.4077C119.609 39.9277 117.641 39.3517 117.641 37.1757C117.641 35.1917 119.177 34.0557 121.641 34.0557C124.249 34.0557 125.945 35.3837 126.121 37.6877H124.297C124.105 36.3117 123.321 35.5597 121.657 35.5597C120.217 35.5597 119.481 36.0877 119.481 37.0797C119.481 38.3597 120.681 38.6317 122.153 38.9997C124.361 39.5597 126.441 40.0877 126.441 42.5037C126.441 44.4717 125.113 45.9437 122.249 45.9437Z" fill="#242529"/>
<path d="M133.111 45.9437C129.687 45.9437 127.495 43.4317 127.495 39.9917C127.495 36.5517 129.687 34.0557 133.111 34.0557C136.535 34.0557 138.727 36.5517 138.727 39.9917C138.727 43.4317 136.535 45.9437 133.111 45.9437ZM129.335 39.9917C129.335 42.3437 130.407 44.4237 133.111 44.4237C135.815 44.4237 136.887 42.3437 136.887 39.9917C136.887 37.6397 135.815 35.5757 133.111 35.5757C130.407 35.5757 129.335 37.6397 129.335 39.9917Z" fill="#242529"/>
<path d="M145.181 37.5117C144.701 37.9597 143.853 38.0397 142.861 38.0397V36.6317C144.813 36.5837 145.389 35.9917 145.533 34.6637H146.909V45.7197H145.181V37.5117Z" fill="#242529"/>
<path d="M153.066 45.9437C150.218 45.9437 148.618 44.4717 148.618 41.9437H150.378C150.378 43.4637 151.018 44.4557 152.954 44.4557C154.698 44.4557 155.29 43.7517 155.29 42.5677C155.29 41.0477 154.202 40.6797 153.082 40.6797H152.042V39.2557H153.018C154.122 39.2557 154.906 38.7597 154.906 37.5597C154.906 36.6957 154.378 35.9277 153.018 35.9277C151.146 35.9277 150.682 36.9197 150.682 37.9917H148.922C148.922 35.9437 150.314 34.4397 153.034 34.4397C155.002 34.4397 156.698 35.5277 156.698 37.4797C156.698 38.6637 156.09 39.3997 155.034 39.8477V39.8797C156.49 40.3437 157.082 41.3037 157.082 42.5997C157.082 44.7437 155.498 45.9437 153.066 45.9437Z" fill="#242529"/>
<path d="M163.411 45.7197V43.1917H158.147V41.5917L163.411 34.6637H165.139V41.7037H166.691V43.1917H165.139V45.7197H163.411ZM159.747 41.7037H163.411V36.8877L159.747 41.7037Z" fill="#242529"/>
<path d="M172.017 45.9437C169.617 45.9437 167.777 44.8397 167.777 42.5997C167.777 41.0797 168.785 40.3117 169.841 39.8477V39.8157C169.057 39.3997 168.321 38.6957 168.321 37.4477C168.321 35.5437 169.873 34.4397 172.017 34.4397C174.177 34.4397 175.729 35.5437 175.729 37.4477C175.729 38.6957 174.977 39.3997 174.209 39.8157V39.8477C175.249 40.3117 176.273 41.0797 176.273 42.5997C176.273 44.8397 174.433 45.9437 172.017 45.9437ZM169.569 42.5037C169.569 43.7677 170.481 44.5037 172.017 44.5037C173.553 44.5037 174.465 43.7677 174.465 42.5037C174.465 41.2717 173.553 40.5357 172.017 40.5357C170.481 40.5357 169.569 41.2717 169.569 42.5037ZM170.049 37.5117C170.049 38.6317 170.785 39.1597 172.017 39.1597C173.265 39.1597 174.001 38.6317 174.001 37.5117C174.001 36.4077 173.265 35.8477 172.017 35.8477C170.785 35.8477 170.049 36.4077 170.049 37.5117Z" fill="#242529"/>
<path d="M181.575 45.9437C178.935 45.9437 177.495 44.3437 177.431 42.4877H179.191C179.303 43.4957 179.879 44.4557 181.479 44.4557C182.887 44.4557 183.815 43.5917 183.815 41.9437C183.815 40.3917 182.967 39.6877 181.591 39.6877C180.695 39.6877 179.879 39.9917 179.351 40.6797H177.575L178.759 34.6637H185.047V36.1517H180.087L179.479 39.2077V39.2397C180.055 38.6477 180.871 38.2797 182.055 38.2797C184.151 38.2797 185.607 39.8317 185.607 41.9437C185.607 44.3917 183.847 45.9437 181.575 45.9437Z" fill="#242529"/>
</g>
</svg>
