<svg width="49" height="49" viewBox="0 0 49 49" fill="none" xmlns="http://www.w3.org/2000/svg">
<path d="M28.0085 15.2876C25.8236 15.9019 23.5106 15.9019 21.3257 15.2876" stroke="#B3B1C5" stroke-width="1.5" stroke-linecap="round" stroke-linejoin="round"/>
<path fill-rule="evenodd" clip-rule="evenodd" d="M39.2372 13.5734V13.5734C36.9302 9.72775 32.3343 7.90099 28.0165 9.1155L26.1077 9.65172C25.1653 9.91583 24.1689 9.91583 23.2285 9.65172L21.3197 9.1155C16.9999 7.90099 12.406 9.72775 10.097 13.5734V13.5734C9.16665 15.124 8.67444 16.8987 8.6724 18.7095V18.8956C8.66444 25.0461 9.90295 31.1347 12.31 36.795L12.9662 38.3357C13.5905 39.8023 15.0331 40.7567 16.6298 40.7567V40.7567C18.2604 40.7567 19.727 39.7603 20.3293 38.2456L22.2281 33.4636C22.6263 32.4592 23.5927 31.8009 24.6671 31.8009V31.8009C25.7415 31.8009 26.708 32.4592 27.1061 33.4636L29.0049 38.2456C29.6072 39.7603 31.0738 40.7567 32.7044 40.7567V40.7567C34.3011 40.7567 35.7437 39.8023 36.368 38.3337L37.0242 36.793C39.4333 31.1327 40.6698 25.0441 40.6618 18.8936V18.7075C40.6598 16.8987 40.1676 15.124 39.2372 13.5734Z" stroke="#B3B1C5" stroke-width="1.5" stroke-linecap="round" stroke-linejoin="round"/>
</svg>
