<svg width="48" height="48" viewBox="0 0 48 48" fill="none" xmlns="http://www.w3.org/2000/svg">
<g opacity="0.48">
<path d="M40 33V38C40 40.2091 38.2091 42 36 42H11C8.23858 42 6 39.7614 6 37V11" stroke="#F0EFF4" stroke-width="1.5" stroke-linecap="round" stroke-linejoin="round"/>
<path fill-rule="evenodd" clip-rule="evenodd" d="M37 23H40C41.1046 23 42 23.8954 42 25V31C42 32.1046 41.1046 33 40 33H37C34.2386 33 32 30.7614 32 28V28C32 25.2386 34.2386 23 37 23V23Z" stroke="#F0EFF4" stroke-width="1.5" stroke-linecap="round" stroke-linejoin="round"/>
<path d="M18.709 8H9C7.34315 8 6 9.34315 6 11V11C6 12.6569 7.34315 14 9 14H36C38.2091 14 40 15.7909 40 18V23" stroke="#F0EFF4" stroke-width="1.5" stroke-linecap="round" stroke-linejoin="round"/>
<path d="M16 14C16 9.58172 19.5817 6 24 6C28.4183 6 32 9.58172 32 14" stroke="#F0EFF4" stroke-width="1.5" stroke-linecap="round" stroke-linejoin="round"/>
</g>
</svg>
