<svg width="48" height="48" viewBox="0 0 48 48" fill="none" xmlns="http://www.w3.org/2000/svg">
<g opacity="0.48">
<path d="M36.7279 11.2721C43.7573 18.3015 43.7573 29.6985 36.7279 36.7279C29.6984 43.7573 18.3015 43.7573 11.2721 36.7279C4.24264 29.6984 4.24264 18.3015 11.2721 11.2721C18.3015 4.24264 29.6985 4.24264 36.7279 11.2721" stroke="#F0EFF4" stroke-width="1.5" stroke-linecap="round" stroke-linejoin="round"/>
<path d="M34 18.4802C33.21 19.4502 32.13 20.0002 31 20.0002C29.87 20.0002 28.82 19.4502 28 18.4802" stroke="#F0EFF4" stroke-width="1.5" stroke-linecap="round" stroke-linejoin="round"/>
<path d="M20 18.4802C19.21 19.4502 18.13 20.0002 17 20.0002C15.87 20.0002 14.82 19.4502 14 18.4802" stroke="#F0EFF4" stroke-width="1.5" stroke-linecap="round" stroke-linejoin="round"/>
<path d="M31 29.376C31 29.376 28.374 32 24 32C19.624 32 17 29.376 17 29.376" stroke="#F0EFF4" stroke-width="1.5" stroke-linecap="round" stroke-linejoin="round"/>
</g>
</svg>
