<svg width="48" height="48" viewBox="0 0 48 48" fill="none" xmlns="http://www.w3.org/2000/svg">
<g opacity="0.48">
<path d="M32.5355 5.46447C34.4881 7.41709 34.4881 10.5829 32.5355 12.5355C30.5829 14.4881 27.4171 14.4881 25.4645 12.5355C23.5118 10.5829 23.5118 7.41709 25.4645 5.46447C27.4171 3.51184 30.5829 3.51184 32.5355 5.46447" stroke="#F0EFF4" stroke-width="1.5" stroke-linecap="round" stroke-linejoin="round"/>
<path d="M17.6568 14.3431C20.781 17.4674 20.781 22.5327 17.6568 25.6568C14.5326 28.781 9.46733 28.781 6.34315 25.6568C3.21895 22.5326 3.21895 17.4673 6.34315 14.3431C9.46735 11.2189 14.5327 11.2189 17.6568 14.3431" stroke="#F0EFF4" stroke-width="1.5" stroke-linecap="round" stroke-linejoin="round"/>
<path d="M20 20H4" stroke="#F0EFF4" stroke-width="1.5" stroke-linecap="round" stroke-linejoin="round"/>
<path fill-rule="evenodd" clip-rule="evenodd" d="M42.2301 30.3101L32.3101 40.2301C29.9501 42.5901 26.1261 42.5901 23.7661 40.2301V40.2301C21.4061 37.8701 21.4061 34.0461 23.7661 31.6861L33.6861 21.7661C36.0461 19.4061 39.8701 19.4061 42.2301 21.7661V21.7661C44.5901 24.1261 44.5901 27.9521 42.2301 30.3101Z" stroke="#F0EFF4" stroke-width="1.5" stroke-linecap="round" stroke-linejoin="round"/>
<path d="M28.7598 26.7598L37.2398 35.2398" stroke="#F0EFF4" stroke-width="1.5" stroke-linecap="round" stroke-linejoin="round"/>
</g>
</svg>
