<svg width="49" height="49" viewBox="0 0 49 49" fill="none" xmlns="http://www.w3.org/2000/svg">
<path d="M40.3301 33.75V38.75C40.3301 40.9591 38.5392 42.75 36.3301 42.75H11.3301C8.56865 42.75 6.33008 40.5114 6.33008 37.75V11.75" stroke="#B3B1C5" stroke-width="1.5" stroke-linecap="round" stroke-linejoin="round"/>
<path fill-rule="evenodd" clip-rule="evenodd" d="M37.3301 23.75H40.3301C41.4346 23.75 42.3301 24.6454 42.3301 25.75V31.75C42.3301 32.8546 41.4346 33.75 40.3301 33.75H37.3301C34.5687 33.75 32.3301 31.5114 32.3301 28.75V28.75C32.3301 25.9886 34.5687 23.75 37.3301 23.75V23.75Z" stroke="#B3B1C5" stroke-width="1.5" stroke-linecap="round" stroke-linejoin="round"/>
<path d="M19.039 8.75H9.33008C7.67322 8.75 6.33008 10.0931 6.33008 11.75V11.75C6.33008 13.4069 7.67322 14.75 9.33008 14.75H36.3301C38.5392 14.75 40.3301 16.5409 40.3301 18.75V23.75" stroke="#B3B1C5" stroke-width="1.5" stroke-linecap="round" stroke-linejoin="round"/>
<path d="M16.3301 14.75C16.3301 10.3317 19.9118 6.75 24.3301 6.75C28.7484 6.75 32.3301 10.3317 32.3301 14.75" stroke="#B3B1C5" stroke-width="1.5" stroke-linecap="round" stroke-linejoin="round"/>
</svg>
