<svg width="48" height="48" viewBox="0 0 48 48" fill="none" xmlns="http://www.w3.org/2000/svg">
<path d="M41.1713 18.7045C41.7175 20.4171 41.9996 22.203 42.0077 24.0007C42.0077 33.9459 33.9454 42.0082 24.0002 42.0082C14.0549 42.0082 5.99268 33.9459 5.99268 24.0007C5.99268 14.0554 14.0549 5.99316 24.0002 5.99316C25.7978 6.00129 27.5837 6.28331 29.2964 6.82951" stroke="#B3B1C5" stroke-width="1.5" stroke-linecap="round" stroke-linejoin="round"/>
<path d="M38.0301 12.5198L35.479 9.96875" stroke="#B3B1C5" stroke-width="1.5" stroke-linecap="round" stroke-linejoin="round"/>
<path d="M42.0079 8.54199L38.0303 12.5197" stroke="#B3B1C5" stroke-width="1.5" stroke-linecap="round" stroke-linejoin="round"/>
<path fill-rule="evenodd" clip-rule="evenodd" d="M33.0698 25.6219C33.2912 25.5287 33.5464 25.5706 33.7263 25.7298C33.9062 25.8889 33.9789 26.1371 33.9134 26.3682C33.4536 28.1497 32.5255 29.7758 31.2254 31.0778C27.4021 35.1071 21.0362 35.2741 17.0068 31.4508C12.9775 27.6274 12.8105 21.2616 16.6338 17.2322C16.7549 17.1046 16.8793 16.9803 17.0069 16.8592C18.3084 15.5586 19.9347 14.6304 21.7164 14.1712C21.9475 14.1057 22.1957 14.1784 22.3549 14.3583C22.514 14.5382 22.556 14.7934 22.4627 15.0148C20.9245 18.0588 21.5149 21.7464 23.9265 24.1581C26.3382 26.5697 30.0258 27.1601 33.0699 25.6219L33.0698 25.6219Z" stroke="#B3B1C5" stroke-width="1.5" stroke-linecap="round" stroke-linejoin="round"/>
</svg>
