<svg width="48" height="49" viewBox="0 0 48 49" fill="none" xmlns="http://www.w3.org/2000/svg">
<g opacity="0.48">
<path d="M35.3138 15.436C41.5618 21.684 41.5618 31.816 35.3138 38.064C29.0658 44.312 18.9338 44.312 12.6858 38.064C6.43776 31.816 6.43776 21.684 12.6858 15.436C18.9338 9.188 29.0658 9.188 35.3138 15.436" stroke="#F0EFF4" stroke-width="1.5" stroke-linecap="round" stroke-linejoin="round"/>
<path d="M25 26.7455C25 26.1935 24.552 25.7475 24 25.7495C23.448 25.7515 23 26.1995 23 26.7515C23 27.3035 23.446 27.7495 23.998 27.7495C24.55 27.7495 24.998 27.3015 25 26.7475" stroke="#F0EFF4" stroke-width="1.5" stroke-linecap="round" stroke-linejoin="round"/>
<path d="M24 18.75V26.75" stroke="#F0EFF4" stroke-width="1.5" stroke-linecap="round" stroke-linejoin="round"/>
<path d="M20.0005 4.74951H28.0005" stroke="#F0EFF4" stroke-width="1.5" stroke-linecap="round" stroke-linejoin="round"/>
<path d="M41.9997 12.75L37.9997 8.75L39.9997 10.75L35.3137 15.436" stroke="#F0EFF4" stroke-width="1.5" stroke-linecap="round" stroke-linejoin="round"/>
</g>
</svg>
