<svg width="48" height="48" viewBox="0 0 48 48" fill="none" xmlns="http://www.w3.org/2000/svg">
<path d="M26.7782 21.2218C31.0739 25.5176 31.0739 32.4824 26.7782 36.7782C22.4824 41.0739 15.5176 41.0739 11.2218 36.7782C6.92606 32.4824 6.92606 25.5176 11.2218 21.2218C15.5176 16.9261 22.4824 16.9261 26.7782 21.2218" stroke="#B3B1C5" stroke-width="1.5" stroke-linecap="round" stroke-linejoin="round"/>
<path d="M36.7782 11.2218C41.0739 15.5176 41.0739 22.4824 36.7782 26.7782C32.4824 31.0739 25.5176 31.0739 21.2218 26.7782C16.9261 22.4824 16.9261 15.5176 21.2218 11.2218C25.5176 6.92606 32.4824 6.92606 36.7782 11.2218" stroke="#B3B1C5" stroke-width="1.5" stroke-linecap="round" stroke-linejoin="round"/>
<path d="M16 8H12C7.582 8 4 11.582 4 16" stroke="#B3B1C5" stroke-width="1.5" stroke-linecap="round" stroke-linejoin="round"/>
<path d="M12 4L16 8L12 12" stroke="#B3B1C5" stroke-width="1.5" stroke-linecap="round" stroke-linejoin="round"/>
<path d="M32 40H36C40.418 40 44 36.418 44 32" stroke="#B3B1C5" stroke-width="1.5" stroke-linecap="round" stroke-linejoin="round"/>
<path d="M36 44L32 40L36 36" stroke="#B3B1C5" stroke-width="1.5" stroke-linecap="round" stroke-linejoin="round"/>
</svg>
