<svg width="48" height="49" viewBox="0 0 48 49" fill="none" xmlns="http://www.w3.org/2000/svg">
<g opacity="0.48">
<path d="M34 33V36.75H30" stroke="#F0EFF4" stroke-width="1.5" stroke-linecap="round" stroke-linejoin="round"/>
<path d="M12 19.75H28" stroke="#F0EFF4" stroke-width="1.5" stroke-linecap="round" stroke-linejoin="round"/>
<path d="M12 13.1104H28" stroke="#F0EFF4" stroke-width="1.5" stroke-linecap="round" stroke-linejoin="round"/>
<path d="M12.0996 26.75H19.9996" stroke="#F0EFF4" stroke-width="1.5" stroke-linecap="round" stroke-linejoin="round"/>
<path d="M33 45C37.97 45 42 40.97 42 36C42 31.03 37.97 27 33 27C28.028 27 24 31.03 24 36C24 40.97 28.028 45 33 45" stroke="#F0EFF4" stroke-width="1.5" stroke-linecap="round" stroke-linejoin="round"/>
<path d="M24.032 36.75H10C7.79 36.75 6 34.96 6 32.75V8.75C6 6.54 7.79 4.75 10 4.75H30C32.21 4.75 34 6.54 34 8.75V27.054" stroke="#F0EFF4" stroke-width="1.5" stroke-linecap="round" stroke-linejoin="round"/>
</g>
</svg>
