<svg width="48" height="48" viewBox="0 0 48 48" fill="none" xmlns="http://www.w3.org/2000/svg">
<path d="M42.0082 22.0058V34.0117C42.0082 38.4318 38.425 42.015 34.0048 42.015H13.9965C9.57638 42.015 5.99316 38.4318 5.99316 34.0117V14.0033C5.99316 9.58321 9.57638 6 13.9965 6H26.0023" stroke="#B3B1C5" stroke-width="1.5" stroke-linecap="round" stroke-linejoin="round"/>
<path fill-rule="evenodd" clip-rule="evenodd" d="M38.0035 4C41.8696 4 45.0036 7.13401 45.0036 11C45.0036 14.866 41.8696 18 38.0035 18C34.1375 18 31.0034 14.866 31.0034 11C31.0034 7.13401 34.1375 4 38.0035 4Z" stroke="#B3B1C5" stroke-width="1.5" stroke-linecap="round" stroke-linejoin="round"/>
<path d="M40.3782 9.37402L36.7976 12.951L35.0581 11.2185" stroke="#B3B1C5" stroke-width="1.5" stroke-linecap="round" stroke-linejoin="round"/>
<path d="M14 24.5H18.9996L22.0002 20L25.9998 29L29.0004 24.5H34" stroke="#B3B1C5" stroke-width="1.5" stroke-linecap="round" stroke-linejoin="round"/>
</svg>
